# xmcd
#
# Track frame offsets:
#	150
#	17640
#	33697
#	51225
#	66560
#	86067
#	105645
#	117562
#	129860
#	156547
#	173117
#	191165
#	201530
#	217382
#	227545
#	238832
#	250637
#	269000
#	282247
#	296667
#	314070
#
# Disc length: 4468 seconds
#
# Revision: 1
# Processed by: cddbd v1.5PL3 Copyright (c) Steve Scherf et al.
# Submitted via: EasyCDDAExtractor 6.5.7.1
#
DISCID=59117215
DTITLE=Amelinha - 21 Grandes Sucessos
DYEAR=1900
DGENRE=MPB
TTITLE0=Meu Tesão é Você
TTITLE1=Gemedeira
TTITLE2=Foi Deus Quem Fez Você
TTITLE3=Flor Da Paisagem
TTITLE4=Galope Razante
TTITLE5=Coito das Araras
TTITLE6=Felicidade ( Aforça da Canção)
TTITLE7=Romance da Lua Lua
TTITLE8=Mulher Nova, Bonita e Carinhosa Faz O Homem Gemer sem Sentir Dor
TTITLE9=Yolo Na Colina ( The Fool On The Hill)
TTITLE10=Frevo Mulher
TTITLE11=Pedaço de Canção
TTITLE12=Água de Lua
TTITLE13=Cintura Fina
TTITLE14=Santa Tereza
TTITLE15=Porta Secreta
TTITLE16=Tempo Rei
TTITLE17=Santo e Demônio
TTITLE18=Espumas ao Vento
TTITLE19=Me Usa
TTITLE20=De janeiro a Janeiro
EXTD=
EXTT0=
EXTT1=
EXTT2=
EXTT3=
EXTT4=
EXTT5=
EXTT6=
EXTT7=
EXTT8=
EXTT9=
EXTT10=
EXTT11=
EXTT12=
EXTT13=
EXTT14=
EXTT15=
EXTT16=
EXTT17=
EXTT18=
EXTT19=
EXTT20=
PLAYORDER=
